<?xml version="1.0" encoding="utf-8"?>
<!-- Svg Vector Icons : http://www.onlinewebfonts.com/icon -->
<!DOCTYPE svg PUBLIC "-//W3C//DTD SVG 1.1//EN" "http://www.w3.org/Graphics/SVG/1.1/DTD/svg11.dtd">
<svg version="1.1" xmlns="http://www.w3.org/2000/svg" xmlns:xlink="http://www.w3.org/1999/xlink" x="0px" y="0px" viewBox="0 0 1000 1000" enable-background="new 0 0 1000 1000" xml:space="preserve">
<metadata> Svg Vector Icons : http://www.onlinewebfonts.com/icon </metadata>
<g><g><g><path d="M842.4,496.5c0-229.9-186.3-416.2-416.2-416.2C196.4,80.3,10,266.6,10,496.5c0,229.9,186.4,416.2,416.2,416.2C656.1,912.7,842.4,726.4,842.4,496.5z M753.9,383c7.9,0,14.3,6.4,14.3,14.3c0,7.9-6.4,14.3-14.3,14.3c-7.9,0-14.3-6.4-14.3-14.3C739.6,389.4,746,383,753.9,383z M729,509.7c0,10.3-0.5,20.5-1.5,30.4l-233.8-94.7l133.4-162.3C689.6,338.7,729,419.5,729,509.7z M407.9,128.1c7.9,0,14.3,6.4,14.3,14.3c0,7.9-6.4,14.3-14.3,14.3c-7.9,0-14.3-6.4-14.3-14.3C393.6,134.5,400,128.1,407.9,128.1z M426.2,206.9c40,0,78.1,7.8,112.9,21.9L407,389.5L276.6,246.4C320.8,221.3,371.8,206.9,426.2,206.9z M75.3,426c-7.9,0-14.3-6.4-14.3-14.3c0-7.9,6.4-14.3,14.3-14.3c7.9,0,14.3,6.4,14.3,14.3C89.5,419.5,83.2,426,75.3,426z M125.4,544.5c-1.3-11.5-2.1-23-2.1-34.8c0-75.8,27.9-145,74-198.2l135.6,148.9L125.4,544.5z M228.2,822.2c-7.9,0-14.3-6.4-14.3-14.3c0-7.9,6.4-14.3,14.3-14.3c7.9,0,14.3,6.4,14.3,14.3C242.5,815.8,236.1,822.2,228.2,822.2z M154.4,643.3l216.9-87.9l5,252.9C278.6,792.1,196.8,729.2,154.4,643.3z M416.9,548.8c-31.9,0-57.8-25.9-57.8-57.7c0-31.9,25.9-57.8,57.8-57.8c31.9,0,57.8,25.9,57.8,57.8C474.7,523,448.8,548.8,416.9,548.8z M634.3,793.6c-7.9,0-14.3-6.4-14.3-14.3c0-7.9,6.4-14.3,14.3-14.3c7.9,0,14.3,6.4,14.3,14.3C648.6,787.2,642.2,793.6,634.3,793.6z M478.8,807.9l-5.1-260l226.2,91.6C658.5,726.6,576.7,790.8,478.8,807.9z"/><path d="M746.4,806.1C708.1,838.2,620,896.4,620,896.4c175.1-51.3,348.2,23.3,348.2,23.3L990,738C873.5,719.4,805,756.9,746.4,806.1z"/></g></g><g></g><g></g><g></g><g></g><g></g><g></g><g></g><g></g><g></g><g></g><g></g><g></g><g></g><g></g><g></g></g>
</svg>